<?xml version="1.0" encoding="UTF-8"?>
<svg xmlns="http://www.w3.org/2000/svg" version="1.1" viewBox="0 0 147.1 64.8">
  <defs>
    <style>
      .cls-1 {
        fill: #ff4200;
      }

      .cls-2 {
        font-family: Montserrat-Bold, Montserrat;
        font-size: 27.2px;
        font-weight: 700;
      }

      .cls-2, .cls-3, .cls-4, .cls-5 {
        isolation: isolate;
      }

      .cls-2, .cls-6 {
        fill: #fff;
      }

      .cls-7 {
        fill: #1b4f72;
      }

      .cls-4 {
        font-family: JosefinSans-Regular, 'Josefin Sans';
        font-size: 30px;
      }

      .cls-5, .cls-8 {
        display: none;
      }

      .cls-9 {
        fill: none;
        stroke: #ff4200;
        stroke-miterlimit: 10;
        stroke-width: 2px;
      }
    </style>
  </defs>
  <!-- Generator: Adobe Illustrator 28.6.0, SVG Export Plug-In . SVG Version: 1.2.0 Build 709)  -->
  <g>
    <g id="Layer_1">
      <g id="Layer_3" class="cls-8">
        <g>
          <path class="cls-7" d="M25.6,48.3c.4-1.2.7-2.3,1.1-3.4.8-2.5,1.6-5.1,2.5-7.6.3-.8.2-1.6-.2-2.3-.2-.4-.5-.9-.7-1.3-.3-.6-.1-1,.6-1h2.5q1.6,0,1.6,1.5c0,.6,0,1.2.3,1.7,1.2,3.9,2.3,7.7,3.5,11.6,0,.3.2.6.3,1,.6-1.7,1.1-3.4,1.6-4.9.9-2.7,1.8-5.5,2.8-8.1.5-1.5,1.4-2.8,2.6-3.8,1.6-1.4,3.5-1.9,5.6-1.3,1.6.4,2,2,.9,3.2,0,0-.4.2-.5,0-1.3-.8-3.4-.9-4.9.6s-1.4,1.6-1.9,2.6c-1,2.3-1.9,4.7-2.7,7.1-.8,2.4-1.6,4.8-2.3,7.2-.3.8-.6,1.1-1.5,1.1h-1.5c-.7,0-1-.3-1.2-.9-1.1-3.6-2.2-7.2-3.3-10.8,0-.3-.2-.5-.4-.8-.2.7-.4,1.4-.7,2.1-1,3.1-2,6.2-3,9.3-.3.8-.6,1-1.4,1.1h-1.2c-1,0-1.3-.2-1.6-1.2-.6-1.9-1.2-3.7-1.7-5.6-.9-2.9-1.8-5.8-2.8-8.7-.3-1-.8-1.9-1.3-2.8-.4-.8-.3-1.3.7-1.3h3.3c.4,0,.8.2.8.6-.3,1.8.5,3.5,1,5.2.9,3.2,1.9,6.4,2.9,9.5,0,0,0,.2.2.4h0Z"/>
          <path class="cls-7" d="M101.3,41.5c.5-.5.9-1,1.4-1.5,1.3-1.4,2.6-2.9,3.8-4.3.6-.7,1.1-1.5,1.1-2.5s.2-.6.6-.7h3.3c.2,0,.5.2.5.4s-.2.5-.3.7c-1,.9-2.1,1.7-3,2.6-1,1-1.9,2-2.9,3.1-.2.2-.3.4,0,.7,2,3.6,4,7.2,6.1,10.8,1,1.8,2.5,3.3,4.4,4.2,2.3,1.1,4.6.9,6.7-.7.4-.3.7-.3,1.1,0,1,.9.9,2.2-.2,3-.9.6-2,.9-3,1-4.6.4-8.3-1.4-11.2-4.9-2-2.4-3.3-5.2-4.8-8-.5-1-1.1-2-1.7-3.1-.6.7-1.1,1.3-1.6,1.9,0,0-.2.3,0,.4,0,1.8,0,3.6.2,5.4,0,.4.2.7.3,1.1,0,.5,0,.9-.6.9h-3.2c-.5,0-.7-.3-.6-.7.9-3.7.4-7.4.5-11.1,0-1.8,0-3.6-.2-5.4,0-.5-.2-.9-.3-1.4,0-.6,0-.9.6-.9h3.2c.5,0,.8.3.6.8-.7,2.5-.5,5-.5,7.5v.6h0-.2Z"/>
          <path class="cls-7" d="M87.9,52.3c-4,0-7.4-2.9-7.3-7.6,0-4.2,3.2-7.2,7.3-7.3,4.5,0,7.4,3.2,7.4,7.4s-3,7.5-7.4,7.5ZM91.7,45.6c0-1.8-.6-3.9-1.4-5-1.6-2.2-4.3-2-5.5.5-.5,1-.7,2.1-.6,3.2,0,1.9.5,3.7,1.7,5.1,1.5,1.8,4.1,1.5,5.1-.6.5-1,.7-2.1.7-3.2Z"/>
          <path class="cls-7" d="M48.1,46c.4,1.2,1,2.2,2,2.8,1.5,1,4.2,1.1,6-.4.2,0,.3-.3.5-.4.2,0,.5-.2.7,0,.2,0,.3.5.2.7-.3.9-.9,1.6-1.6,2.1-2.1,1.7-5.6,1.9-8,.6-2.3-1.3-3.4-3.2-3.7-5.8-.2-2,.2-3.8,1.4-5.5s2.9-2.6,5-2.8c1.6-.2,3.2,0,4.7,1,2.5,1.7,2.4,5-.3,6.4-1.6.9-3.4,1.1-5.3,1.2h-1.6ZM47.8,44.4c1.4,0,2.8,0,4.1-.5.2,0,.5-.2.7-.4.8-.7,1.1-1.5.9-2.5-.2-.9-.6-1.6-1.6-1.8-1.2-.3-2.4,0-3.2,1.1-.9,1.2-1.1,2.6-1,4.1h0Z"/>
          <path class="cls-7" d="M73.3,37.4c1.9,0,3.5.4,4.8,1.8.7.8,1,1.7.7,2.8-.2.7-.9,1.1-1.7,1.1s-1.3-.4-1.5-1.2c0-.3,0-.6-.2-.9-.5-1.7-2.1-2.3-3.7-1.5s-1.3,1.1-1.6,1.9c-.7,1.8-.7,3.6,0,5.4,1.5,3.4,5.5,3.5,7.6,1.7.2,0,.3-.3.5-.4.2,0,.5-.2.6,0,.2,0,.4.4.4.6s0,.5-.3.7c-1.3,2.1-3.3,3-5.7,2.9-4.5,0-7.6-3.6-7.1-8.1.2-2.3,1.1-4.1,2.9-5.5,1.3-.9,2.8-1.3,4.3-1.3h0Z"/>
          <path class="cls-7" d="M124.9,37.7h3.3c.8,0,1.3.6.9,1.4-.1.2-.5.4-.8.4h-3.3v8.8c.3,1.4,1.3,1.9,2.6,1.4.4-.2.8-.5,1.2-.8.2,0,.5-.2.6,0,.2,0,.3.5.3.7-.1.7-.6,1.3-1.1,1.8-1.5,1.1-3.1,1.3-4.8.7-1-.3-1.7-1.1-2-2.2-.2-.8-.4-1.7-.4-2.5v-7.2c0-.4,0-.6-.5-.6h-.9c-.4,0-.7,0-.8-.6,0-.7,0-1.1.6-1.2,1.9-.2,2.7-1.6,3.2-3.3,0-.4.4-.7.8-.8.6,0,.9,0,1,.7v3.4Z"/>
          <path class="cls-7" d="M65.2,50c0,1.2-.7,2.1-2,2.2-2,.2-3.2-.9-3.3-3v-13.4c0-.8,0-1.6-.5-2.3-.3-.5,0-.9.4-1.2.7-.3,1.4-.6,2.2-.8,1-.3,1.4,0,1.4,1.1v15.6c0,1.5.3,1.6,1.7,1.8h0Z"/>
          <path class="cls-7" d="M117.6,43.7c0,2,0,4,.2,5.9,0,.5.2,1,.3,1.5,0,.6,0,.9-.7.9h-2.9c-.6,0-.8-.3-.7-.8.6-2.8.3-5.7.4-8.6,0-1.1,0-2.1-.5-3.1-.3-.5,0-.9.4-1.1.8-.3,1.6-.6,2.4-.8s1.2,0,1.2,1v5.1h-.1Z"/>
          <path class="cls-7" d="M115.9,36.1c-1.3,0-2.1-.8-2.1-2.1s1-1.9,2.1-1.9,2.1.9,2.1,2-.9,1.9-2.1,1.9h0Z"/>
        </g>
      </g>
      <g id="Layer_2" class="cls-8">
        <g class="cls-5">
          <text class="cls-4" transform="translate(14.3 52.7)"><tspan x="0" y="0">WelcoKit</tspan></text>
        </g>
      </g>
      <g id="Layer_2_copy">
        <g class="cls-3">
          <text class="cls-2" transform="translate(8.9 52.6)"><tspan x="0" y="0">WelcoKit</tspan></text>
        </g>
      </g>
      <g id="Layer_1-2" data-name="Layer_1">
        <g>
          <path class="cls-6" d="M73.4,11.8c0,0,.3,0,.4.1,2.6,1,5.2,2,7.8,2.9.5.2,1,.5,1.3,1,.7,1,1.4,2,2.1,3,.5.8.4,1.1-.5,1.5-.5.2-1,.4-1.5.6-.3.1-.4.3-.4.6v4.7c0,.5-.2.8-.7,1-2.6,1.1-5.3,2.2-7.9,3.3-.5.2-.9.2-1.3,0-2.6-1.1-5.3-2.2-7.9-3.3-.5-.2-.7-.5-.7-1v-4.6c0-.4,0-.6-.5-.7-.5-.2-1-.4-1.6-.6s-.7-.7-.4-1.2c.8-1.2,1.7-2.4,2.6-3.6,0-.2.4-.3.6-.4,2.7-1,5.4-2.1,8.2-3.1,0,0,.3,0,.4-.1h0ZM72.6,28.9v-7.9c-.5.7-1,1.3-1.4,2-.3.4-.6.6-1.1.4-.4-.1-.7-.3-1.1-.4-1.1-.4-2.3-.9-3.5-1.4v2.8c-.2,1.2.3,1.7,1.4,2.1,1.9.7,3.8,1.5,5.7,2.4ZM74.1,28.9h.2c2.2-.9,4.4-1.8,6.6-2.8,0,0,.3-.3.3-.4v-4c-1.5.6-2.9,1.2-4.3,1.7-.6.2-.9.2-1.3-.4s-.9-1.2-1.4-1.9v7.8h0ZM79.8,15.8c-2-.8-3.9-1.5-5.8-2.2-.5-.2-.9-.2-1.3,0-1.8.7-3.6,1.4-5.3,2,0,0-.2.1-.4.2,0,0,0,0,.2.1,2,.7,3.9,1.4,5.9,2.1h.7c1.1-.4,2.2-.8,3.3-1.2.9-.3,1.7-.6,2.8-1h0ZM83.4,19.2c-.5-.7-1-1.4-1.5-2.1-.2-.3-.4-.4-.8-.2-1.7.6-3.5,1.2-5.2,1.9-.4.2-.9.3-1.4.5.5.7.9,1.3,1.3,1.8q.7.9,1.7.5c1.9-.8,3.9-1.5,5.9-2.3h0ZM72.1,19.3h0c-2.2-.9-4.4-1.7-6.6-2.5,0,0-.3,0-.4.1-.6.7-1.1,1.5-1.6,2.2h0c2.2,1,4.3,1.8,6.5,2.7h.4c.6-.8,1.2-1.7,1.9-2.5h-.1Z"/>
          <path class="cls-6" d="M66.8,8.9c.5-.3,1-.6,1.4-.9,1.5-.9,2.9-1.9,4.4-2.8.5-.4,1-.2,1.5,0,2,1.3,4,2.6,6,3.8,2.7,1.7,5.4,3.4,8.1,5.2.3.2.7.5.6.9,0,.6-.6,1-1.2.7-.3-.1-.6-.3-.9-.5-4.3-2.8-8.6-5.5-12.9-8.3-.4-.3-.7-.2-1.1,0-4.3,2.8-8.7,5.6-13,8.4-.2.1-.4.2-.6.3-.5.2-.9.1-1.2-.3-.2-.4,0-.9.3-1.2,1-.7,2-1.3,3-1.9.8-.5,1.5-1,2.3-1.5.3-.2.4-.4.4-.8v-2.8c0-.5.2-.7.7-.7h1.6c.4,0,.6.2.6.6v1.6h0Z"/>
        </g>
      </g>
      <g id="Layer_5" class="cls-8">
        <g>
          <path class="cls-9" d="M74.9,30.4h-10.8c-1.4,0-2.6-.8-3-2.1,0-.3-.2-.7-.2-1v-13.6c0-1.7,1.3-3.1,3-3.2h21.8c1.7,0,3,1.1,3.2,2.7v13.9c0,1.8-1.4,3.2-3.2,3.2h-10.9.1Z"/>
          <path class="cls-1" d="M69.8,9.6v-2.3c0-.7.5-1.1,1.2-1.1h8.1c.7,0,1.2.5,1.2,1.2v2.2h-2q-.2,0-.2-.2v-.4c0-.3-.3-.6-.6-.6h-4.8c-.3,0-.6.2-.6.6v.5c0,.1,0,.2-.2.2h-2.1Z"/>
        </g>
      </g>
    </g>
  </g>
</svg>